<svg width="487" height="487" viewBox="0 0 487 487" fill="none" xmlns="http://www.w3.org/2000/svg">
<mask id="path-1-outside-1_702_48145" maskUnits="userSpaceOnUse" x="0" y="0" width="487" height="487" fill="black">
<rect fill="white" width="487" height="487"/>
<path fill-rule="evenodd" clip-rule="evenodd" d="M243.5 3C212.02 3 186.5 28.5198 186.5 60V86.5761C186.5 93.7033 177.883 97.2727 172.843 92.2329L153.551 72.9408C131.291 50.6809 95.2007 50.6809 72.9408 72.9408C50.6809 95.2007 50.6809 131.291 72.9408 153.551L92.233 172.843C97.2727 177.883 93.7034 186.5 86.5762 186.5H60C28.5198 186.5 3 212.02 3 243.5C3 274.98 28.5198 300.5 60 300.5H85.5761C92.7033 300.5 96.2727 309.117 91.2329 314.157L72.9408 332.449C50.6809 354.709 50.6809 390.799 72.9408 413.059C95.2007 435.319 131.291 435.319 153.551 413.059L172.843 393.767C177.883 388.727 186.5 392.297 186.5 399.424V427C186.5 458.48 212.02 484 243.5 484C274.98 484 300.5 458.48 300.5 427V400.424C300.5 393.297 309.117 389.727 314.157 394.767L332.449 413.059C354.709 435.319 390.799 435.319 413.059 413.059C435.319 390.799 435.319 354.709 413.059 332.449L394.767 314.157C389.727 309.117 393.297 300.5 400.424 300.5H427C458.48 300.5 484 274.98 484 243.5C484 212.02 458.48 186.5 427 186.5H399.424C392.297 186.5 388.727 177.883 393.767 172.843L413.059 153.551C435.319 131.291 435.319 95.2007 413.059 72.9408C390.799 50.6809 354.709 50.6809 332.449 72.9408L314.157 91.233C309.117 96.2727 300.5 92.7033 300.5 85.5761V60C300.5 28.5198 274.98 3 243.5 3Z"/>
</mask>
<path fill-rule="evenodd" clip-rule="evenodd" d="M243.5 3C212.02 3 186.5 28.5198 186.5 60V86.5761C186.5 93.7033 177.883 97.2727 172.843 92.2329L153.551 72.9408C131.291 50.6809 95.2007 50.6809 72.9408 72.9408C50.6809 95.2007 50.6809 131.291 72.9408 153.551L92.233 172.843C97.2727 177.883 93.7034 186.5 86.5762 186.5H60C28.5198 186.5 3 212.02 3 243.5C3 274.98 28.5198 300.5 60 300.5H85.5761C92.7033 300.5 96.2727 309.117 91.2329 314.157L72.9408 332.449C50.6809 354.709 50.6809 390.799 72.9408 413.059C95.2007 435.319 131.291 435.319 153.551 413.059L172.843 393.767C177.883 388.727 186.5 392.297 186.5 399.424V427C186.5 458.48 212.02 484 243.5 484C274.98 484 300.5 458.48 300.5 427V400.424C300.5 393.297 309.117 389.727 314.157 394.767L332.449 413.059C354.709 435.319 390.799 435.319 413.059 413.059C435.319 390.799 435.319 354.709 413.059 332.449L394.767 314.157C389.727 309.117 393.297 300.5 400.424 300.5H427C458.48 300.5 484 274.98 484 243.5C484 212.02 458.48 186.5 427 186.5H399.424C392.297 186.5 388.727 177.883 393.767 172.843L413.059 153.551C435.319 131.291 435.319 95.2007 413.059 72.9408C390.799 50.6809 354.709 50.6809 332.449 72.9408L314.157 91.233C309.117 96.2727 300.5 92.7033 300.5 85.5761V60C300.5 28.5198 274.98 3 243.5 3Z" fill="#FFD476"/>
<path d="M153.551 72.9408L151.43 75.0621L151.43 75.0621L153.551 72.9408ZM72.9408 72.9408L70.8195 70.8195L70.8195 70.8195L72.9408 72.9408ZM72.9408 153.551L70.8195 155.672L70.8195 155.672L72.9408 153.551ZM3 243.5L0 243.5L0 243.5L3 243.5ZM72.9408 413.059L75.0621 410.938L75.0621 410.938L72.9408 413.059ZM153.551 413.059L151.43 410.938L151.43 410.938L153.551 413.059ZM413.059 332.449L415.181 330.328L415.181 330.328L413.059 332.449ZM413.059 153.551L415.18 155.672L415.18 155.672L413.059 153.551ZM413.059 72.9408L410.938 75.0621L410.938 75.0621L413.059 72.9408ZM314.157 91.233L316.278 93.3543L314.157 91.233ZM393.767 172.843L395.888 174.964L393.767 172.843ZM172.843 393.767L170.722 391.646L172.843 393.767ZM91.2329 314.157L93.3543 316.278L91.2329 314.157ZM92.233 172.843L94.3543 170.722L92.233 172.843ZM172.843 92.2329L174.964 90.1116L172.843 92.2329ZM189.5 60C189.5 30.1766 213.677 6 243.5 6V0C210.363 0 183.5 26.8629 183.5 60H189.5ZM189.5 86.5761V60H183.5V86.5761H189.5ZM151.43 75.0621L170.722 94.3543L174.964 90.1116L155.672 70.8195L151.43 75.0621ZM75.0621 75.0621C96.1505 53.9738 130.341 53.9738 151.43 75.0621L155.672 70.8195C132.241 47.388 94.251 47.388 70.8195 70.8195L75.0621 75.0621ZM75.0621 151.43C53.9738 130.341 53.9738 96.1504 75.0621 75.0621L70.8195 70.8195C47.3881 94.2509 47.388 132.241 70.8195 155.672L75.0621 151.43ZM94.3543 170.722L75.0621 151.43L70.8195 155.672L90.1117 174.964L94.3543 170.722ZM60 189.5H86.5762V183.5H60V189.5ZM6 243.5C6 213.677 30.1766 189.5 60 189.5V183.5C26.8629 183.5 -1.44847e-06 210.363 0 243.5L6 243.5ZM60 297.5C30.1766 297.5 6 273.323 6 243.5L0 243.5C2.62268e-06 276.637 26.8629 303.5 60 303.5V297.5ZM85.5761 297.5H60V303.5H85.5761V297.5ZM89.1116 312.036L70.8195 330.328L75.0621 334.57L93.3543 316.278L89.1116 312.036ZM70.8195 330.328C47.388 353.759 47.388 391.749 70.8195 415.18L75.0621 410.938C53.9738 389.85 53.9738 355.659 75.0621 334.57L70.8195 330.328ZM70.8195 415.18C94.251 438.612 132.241 438.612 155.672 415.18L151.43 410.938C130.341 432.026 96.1504 432.026 75.0621 410.938L70.8195 415.18ZM155.672 415.18L174.964 395.888L170.722 391.646L151.43 410.938L155.672 415.18ZM189.5 427V399.424H183.5V427H189.5ZM243.5 481C213.677 481 189.5 456.823 189.5 427H183.5C183.5 460.137 210.363 487 243.5 487V481ZM297.5 427C297.5 456.823 273.323 481 243.5 481V487C276.637 487 303.5 460.137 303.5 427H297.5ZM297.5 400.424V427H303.5V400.424H297.5ZM334.57 410.938L316.278 392.646L312.036 396.888L330.328 415.18L334.57 410.938ZM410.938 410.938C389.85 432.026 355.659 432.026 334.57 410.938L330.328 415.18C353.759 438.612 391.749 438.612 415.18 415.18L410.938 410.938ZM410.938 334.57C432.026 355.659 432.026 389.85 410.938 410.938L415.18 415.18C438.612 391.749 438.612 353.759 415.181 330.328L410.938 334.57ZM392.646 316.278L410.938 334.57L415.181 330.328L396.888 312.036L392.646 316.278ZM427 297.5H400.424V303.5H427V297.5ZM481 243.5C481 273.323 456.823 297.5 427 297.5V303.5C460.137 303.5 487 276.637 487 243.5H481ZM427 189.5C456.823 189.5 481 213.677 481 243.5H487C487 210.363 460.137 183.5 427 183.5V189.5ZM399.424 189.5H427V183.5H399.424V189.5ZM395.888 174.964L415.18 155.672L410.938 151.43L391.646 170.722L395.888 174.964ZM415.18 155.672C438.612 132.241 438.612 94.2509 415.18 70.8195L410.938 75.0621C432.026 96.1504 432.026 130.341 410.938 151.43L415.18 155.672ZM415.18 70.8195C391.749 47.388 353.759 47.388 330.328 70.8195L334.57 75.0621C355.659 53.9738 389.85 53.9738 410.938 75.0621L415.18 70.8195ZM330.328 70.8195L312.036 89.1116L316.278 93.3543L334.57 75.0621L330.328 70.8195ZM297.5 60V85.5761H303.5V60H297.5ZM243.5 6C273.323 6 297.5 30.1766 297.5 60H303.5C303.5 26.8629 276.637 0 243.5 0V6ZM312.036 89.1116C308.886 92.2614 303.5 90.0306 303.5 85.5761H297.5C297.5 95.376 309.349 100.284 316.278 93.3543L312.036 89.1116ZM399.424 183.5C394.969 183.5 392.738 178.114 395.888 174.964L391.646 170.722C384.716 177.651 389.624 189.5 399.424 189.5V183.5ZM396.888 312.036C393.739 308.886 395.969 303.5 400.424 303.5V297.5C390.624 297.5 385.716 309.349 392.646 316.278L396.888 312.036ZM303.5 400.424C303.5 395.969 308.886 393.738 312.036 396.888L316.278 392.646C309.349 385.716 297.5 390.624 297.5 400.424H303.5ZM174.964 395.888C178.114 392.738 183.5 394.969 183.5 399.424H189.5C189.5 389.624 177.651 384.716 170.722 391.646L174.964 395.888ZM85.5761 303.5C90.0306 303.5 92.2614 308.886 89.1116 312.036L93.3543 316.278C100.284 309.349 95.376 297.5 85.5761 297.5V303.5ZM90.1117 174.964C93.2615 178.114 91.0307 183.5 86.5762 183.5V189.5C96.3761 189.5 101.284 177.651 94.3543 170.722L90.1117 174.964ZM183.5 86.5761C183.5 91.0306 178.114 93.2614 174.964 90.1116L170.722 94.3543C177.651 101.284 189.5 96.376 189.5 86.5761H183.5Z" fill="#1E1E1E" mask="url(#path-1-outside-1_702_48145)"/>
<circle cx="243" cy="243" r="57" fill="white"/>
</svg>
