<svg xmlns="http://www.w3.org/2000/svg" width="313" height="567" viewBox="0 0 313 567" fill="none">
  <path d="M102 -9.18678e-06C141.487 8.5075 288.939 6.50572 280.941 53.5472C275.598 84.9787 175.047 104.763 115.495 117.103C110.945 118.046 106.44 119.004 102 119.977L102 222.959C108.924 225.101 116.253 227.281 124 229.5C166.199 241.587 157.609 276 155.5 283.5C153.39 291 137.5 316.807 126.492 324C120.593 327.855 111.995 332.443 102 337.381L102 453.69C116.158 457.368 129.5 460.455 138 462C160 466 294 475 309.5 512.5C337.587 580.451 135.489 563.33 102 567L102 453.69C79.5127 447.848 54.9677 440.516 44.5 435.5C-3.50005 412.5 -12 391.5 16 377.5C37.7026 366.649 74.962 350.738 102 337.381L102 222.959C-64.6181 171.408 2.73315 141.735 102 119.977L102 -9.18678e-06Z" fill="url(#paint0_linear_372_1665)" fill-opacity="0.8"/>
  <defs>
    <linearGradient id="paint0_linear_372_1665" x1="216" y1="-4.98311e-06" x2="216" y2="567" gradientUnits="userSpaceOnUse">
      <stop stop-color="#FF8F00" stop-opacity="0.2"/>
      <stop offset="0.304118" stop-color="#FF8F00" stop-opacity="0.2"/>
      <stop offset="0.452029" stop-color="#F164F8" stop-opacity="0.2"/>
      <stop offset="0.659348" stop-opacity="0.2"/>
      <stop offset="0.87923" stop-color="#00A6FF" stop-opacity="0.2"/>
    </linearGradient>
  </defs>
</svg>